<?xml version="1.0" standalone="no"?>
<!DOCTYPE svg PUBLIC "-//W3C//DTD SVG 20010904//EN"
 "http://www.w3.org/TR/2001/REC-SVG-20010904/DTD/svg10.dtd">
<svg version="1.0" xmlns="http://www.w3.org/2000/svg"
 width="360.000000pt" height="360.000000pt" viewBox="0 0 360.000000 360.000000"
 preserveAspectRatio="xMidYMid meet">

<g transform="translate(0.000000,360.000000) scale(0.100000,-0.100000)"
fill="#000000" stroke="none">
<path d="M3028 3518 l-3 -43 -70 -6 c-38 -3 -96 -16 -128 -28 l-59 -23 27 -28
c42 -43 29 -89 -47 -176 -386 -439 -391 -444 -426 -442 -39 3 -52 -12 -52 -60
0 -36 3 -33 -641 -712 -358 -379 -416 -435 -453 -449 -17 -7 -25 -20 -29 -48
-12 -72 -191 -303 -236 -303 -25 0 -8 35 40 84 70 70 114 135 101 148 -17 17
-108 22 -141 8 -24 -10 -29 -18 -29 -43 1 -22 -7 -38 -30 -59 -18 -15 -32 -34
-32 -41 0 -7 -7 -23 -16 -35 -16 -23 -17 -23 -36 -5 -56 50 -54 137 4 186 27
23 42 27 90 27 32 0 58 4 58 9 0 15 -91 41 -145 42 -28 1 -68 -4 -90 -10 -50
-14 -133 -76 -158 -118 -21 -37 -25 -110 -7 -143 12 -22 12 -22 39 10 l27 32
52 -22 c29 -13 64 -36 78 -53 22 -26 23 -32 11 -51 -7 -11 -28 -28 -45 -36
-17 -8 -32 -20 -32 -25 0 -19 23 -35 51 -35 49 0 87 -20 103 -55 26 -55 18
-75 -48 -120 -61 -41 -120 -31 -156 27 l-19 31 -6 -26 c-11 -42 3 -94 31 -116
14 -11 31 -18 37 -16 66 20 109 5 48 -16 -27 -10 -29 -13 -19 -34 10 -22 1
-34 -117 -160 -70 -74 -131 -135 -136 -135 -4 0 -11 5 -15 11 -4 7 -25 10 -54
7 -108 -11 -221 -134 -181 -197 7 -11 16 -7 44 22 19 21 42 37 51 37 9 0 16 7
16 15 0 9 9 15 25 15 31 0 31 -7 3 -39 l-23 -24 23 15 c53 36 87 -10 52 -68
-20 -31 -26 -35 -59 -32 -31 3 -37 7 -42 33 l-5 30 -20 -32 c-10 -18 -25 -33
-31 -33 -7 0 -13 -8 -13 -18 0 -10 -7 -44 -15 -76 -9 -33 -14 -60 -12 -62 2
-2 30 5 62 16 32 11 66 20 77 20 10 0 18 4 18 9 0 11 123 141 133 141 4 0 7
-12 7 -26 0 -18 -4 -25 -14 -21 -9 4 -16 -5 -20 -26 -4 -17 -18 -41 -33 -53
-57 -46 20 -62 80 -16 40 30 69 77 87 138 11 36 10 47 -4 74 l-16 33 42 46
c23 25 79 86 126 134 76 80 87 88 112 82 25 -6 29 -3 32 21 2 15 9 29 15 32
10 3 11 -8 7 -41 -6 -40 -3 -49 19 -71 20 -20 36 -26 69 -26 61 0 78 14 38 30
-51 21 -81 110 -46 140 8 6 13 17 10 24 -5 14 20 38 56 52 20 8 33 6 65 -11
33 -18 42 -29 53 -71 23 -80 42 -93 62 -43 31 73 73 79 124 16 19 -23 38 -55
42 -71 6 -25 3 -33 -22 -52 -33 -27 -30 -33 22 -44 59 -14 94 -1 145 51 76 78
102 200 63 300 -9 24 -23 50 -30 58 -11 12 -12 4 -7 -42 5 -46 2 -61 -16 -90
-12 -19 -35 -40 -51 -47 -41 -17 -106 -7 -137 21 -22 22 -23 24 -7 36 10 7 26
13 36 13 10 0 23 11 28 25 10 25 64 60 80 50 30 -19 40 134 11 169 -12 14 -18
12 -56 -23 -23 -21 -60 -50 -81 -65 -40 -25 -124 -46 -124 -30 0 5 22 36 48
69 64 79 219 194 264 196 7 0 24 22 38 49 23 45 191 231 754 835 281 302 276
297 326 309 43 11 45 13 50 53 5 40 21 59 237 282 213 218 237 240 274 246 33
6 47 3 70 -14 32 -24 30 -25 54 47 11 35 16 75 13 120 l-3 67 45 -4 c25 -2 48
-8 51 -14 4 -5 14 -7 22 -4 25 9 -27 139 -88 223 -41 55 -69 80 -126 115 -69
41 -145 68 -196 69 -19 0 -22 -6 -25 -42z m-2 -135 c19 -16 34 -37 34 -49 0
-29 -34 -57 -58 -50 -12 4 -34 -2 -56 -15 -45 -26 -61 -21 -62 22 0 19 -2 41
-5 49 -3 10 14 24 50 43 30 15 56 27 58 27 2 0 20 -12 39 -27z m-40 -188 c23
-35 4 -80 -42 -97 -18 -6 -34 -19 -36 -28 -2 -10 -117 -139 -257 -288 -212
-225 -260 -272 -290 -279 -35 -8 -36 -10 -39 -60 l-3 -50 43 8 c24 4 46 8 51
9 4 0 7 15 7 33 0 30 27 63 256 308 140 151 264 277 274 281 10 4 21 21 25 38
13 58 103 75 120 21 7 -23 -3 -68 -21 -95 -7 -10 -10 -24 -7 -32 3 -8 -79
-100 -209 -234 -154 -159 -214 -228 -216 -248 -5 -36 -17 -49 -52 -57 -20 -4
-81 -62 -212 -203 -101 -108 -247 -265 -325 -349 -79 -84 -209 -224 -290 -310
-80 -87 -169 -182 -196 -211 -27 -29 -51 -51 -54 -49 -2 3 32 93 75 201 44
108 78 196 77 196 -2 0 -82 -38 -179 -85 -97 -47 -181 -85 -187 -85 -6 0 1 15
16 33 31 36 481 516 803 856 125 132 212 232 212 243 0 34 19 58 48 59 22 0
62 40 232 230 113 126 210 227 216 225 5 -2 28 7 50 20 52 32 89 31 110 -1z
m267 -20 c31 -28 34 -54 10 -111 l-17 -42 -56 2 c-55 1 -55 1 -52 31 2 17 10
38 19 47 12 13 12 21 3 38 -9 18 -8 25 6 41 23 25 53 24 87 -6z m-2117 -1861
c-3 -9 -6 -18 -6 -20 0 -2 -7 -4 -15 -4 -13 0 -13 3 -3 20 15 24 33 27 24 4z
m53 -80 c-10 -13 -10 -17 2 -25 8 -4 22 -6 31 -3 13 4 15 0 11 -16 -4 -13 -11
-19 -20 -16 -8 3 -18 6 -23 6 -13 0 -41 50 -35 60 3 6 15 10 27 10 17 0 19 -2
7 -16z m-39 -103 c0 -36 -3 -40 -31 -46 -17 -4 -35 -3 -39 1 -15 15 2 65 24
74 39 16 46 12 46 -29z m170 -6 c-37 -38 -50 -43 -50 -20 0 15 55 55 74 55 6
0 -5 -16 -24 -35z m-145 -155 c-20 -22 -31 -20 -22 5 4 8 14 15 23 15 16 0 16
-2 -1 -20z m-208 -46 c-5 -52 -17 -64 -65 -64 l-33 0 3 48 c3 45 4 47 38 53
65 12 63 13 57 -37z"/>
</g>
</svg>
